<svg xmlns="http://www.w3.org/2000/svg" width="374.36873136393507" height="261.35625" viewBox="0 0 250.00000000000003 174.53130303364452">
  <g transform="matrix(10.850694013276604,0,0,10.850694013276604,-5.859372412992951,-42.482623798014444)" fill="#9896f1">
    <path d="M0.54 7.76 q0 -0.46 0.31 -0.77 t0.77 -0.31 l2.88 0 q0.16 0 0.26 0.1 t0.1 0.26 l0 0.72 q0 0.16 -0.1 0.26 t-0.26 0.1 l-3.6 0 q0.46 0 0.77 0.31 t0.31
    0.77 l0 3.96 q0 0.16 0.1 0.26 t0.26 0.1 l0.72 0 q0.16 0 0.26 0.1 t0.1 0.26 l0 0.72 q0 0.16 -0.1 0.26 t-0.26 0.1 l-2.16 0 q0.46 0 0.77 0.31 t0.31 0.77 l0 3.6
     q0 0.16 -0.1 0.26 t-0.26 0.1 l-0.72 0 q-0.16 0 -0.26 -0.1 t-0.1 -0.26 l0 -11.88 z M6.300000000000001 20 q-0.16 0 -0.26 -0.1 t-0.1 -0.26 l0 -12.6 q0 -0.16
     0.1 -0.26 t0.26 -0.1 l0.72 0 q0.16 0 0.26 0.1 t0.1 0.26 l0 12.6 q0 0.16 -0.1 0.26 t-0.26 0.1 l-0.72 0 z M8.46 7.039999999999999 q0 -0.16 0.1 -0.26 t0.26
     -0.1 l0.72 0 q0.16 0 0.26 0.1 t0.1 0.26 l0 6.12 q0 0.16 0.1 0.26 t0.26 0.1 l0.72 0 q0.16 0 0.26 -0.1 t0.1 -0.26 l0 -6.12 q0 -0.16 0.1 -0.26 t0.26 -0.1 l0.72
     0 q0.16 0 0.26 0.1 t0.1 0.26 l0 12.6 q0 0.16 -0.1 0.26 t-0.26 0.1 l-0.72 0 q-0.16 0 -0.26 -0.1 t-0.1 -0.26 l0 -4.32 q0 -0.16 -0.1 -0.26 t-0.26 -0.1 l-2.16 0
     q0.46 0 0.77 0.31 t0.31 0.77 l0 3.6 q0 0.16 -0.1 0.26 t-0.26 0.1 l-0.72 0 q-0.16 0 -0.26 -0.1 t-0.1 -0.26 l0 -12.6 z M14.940000000000001 6.68 q0.16 0 0.26 0.1
     t0.1 0.26 l0 10.44 q0 0.46 -0.31 0.77 t-0.77 0.31 l2.16 0 q0.16 0 0.26 -0.1 t0.1 -0.26 l0 -11.16 q0 -0.16 0.1 -0.26 t0.26 -0.1 l0.72 0 q0.16 0 0.26 0.1 t0.1
     0.26 l0 12.6 q0 0.16 -0.1 0.26 t-0.26 0.1 l-2.88 0 q-0.46 0 -0.77 -0.31 t-0.31 -0.77 l0 -11.88 q0 -0.16 0.1 -0.26 t0.26 -0.1 l0.72 0 z M23.58 13.16 q0 0.46
     -0.31 0.77 t-0.77 0.31 q0.46 0 0.77 0.31 t0.31 0.77 l0 3.6 q0 0.46 -0.31 0.77 t-0.77 0.31 l-2.88 0 q-0.16 0 -0.26 -0.1 t-0.1 -0.26 l0 -12.6 q0 -0.16 0.1 -0.26
      t0.26 -0.1 l2.88 0 q0.46 0 0.77 0.31 t0.31 0.77 l0 5.4 z M22.14 15.32 q0 -0.16 -0.1 -0.26 t-0.26 -0.1 l-2.16 0 q0.46 0 0.77 0.31 t0.31 0.77 l0 2.16 q0 0.16
      0.1 0.26 t0.26 0.1 l0.72 0 q0.16 0 0.26 -0.1 t0.1 -0.26 l0 -2.88 z M22.14 8.48 q0 -0.16 -0.1 -0.26 t-0.26 -0.1 l-2.16 0 q0.46 0 0.77 0.31 t0.31 0.77 l0 3.96
      q0 0.16 0.1 0.26 t0.26 0.1 l0.72 0 q0.16 0 0.26 -0.1 t0.1 -0.26 l0 -4.68 z">
    </path>
  </g>
</svg>
